<?xml version="1.0" encoding="UTF-8" standalone="no"?>
<svg
   width="120"
   height="120"
   viewBox="0 0 120 120"
   fill="none"
   stroke="currentColor"
   stroke-width="2"
   stroke-linecap="round"
   stroke-linejoin="round"
   class="lucide lucide-rocket size-5"
   aria-hidden="true"
   version="1.1"
   id="svg4"
   sodipodi:docname="logo.svg"
   inkscape:export-filename="../../../../Desktop/ship-logo.png"
   inkscape:export-xdpi="409.60001"
   inkscape:export-ydpi="409.60001"
   inkscape:version="1.3.2 (091e20e, 2023-11-25)"
   xmlns:inkscape="http://www.inkscape.org/namespaces/inkscape"
   xmlns:sodipodi="http://sodipodi.sourceforge.net/DTD/sodipodi-0.dtd"
   xmlns="http://www.w3.org/2000/svg"
   xmlns:svg="http://www.w3.org/2000/svg">
  <defs
     id="defs4" />
  <sodipodi:namedview
     id="namedview4"
     pagecolor="#ffffff"
     bordercolor="#000000"
     borderopacity="0.25"
     inkscape:showpageshadow="2"
     inkscape:pageopacity="0.0"
     inkscape:pagecheckerboard="0"
     inkscape:deskcolor="#d1d1d1"
     inkscape:zoom="3.4766083"
     inkscape:cx="49.473505"
     inkscape:cy="100.67283"
     inkscape:window-width="1920"
     inkscape:window-height="949"
     inkscape:window-x="0"
     inkscape:window-y="30"
     inkscape:window-maximized="0"
     inkscape:current-layer="svg4" />
  <rect
     style="fill:#ffffff;stroke:none;stroke-width:2.40473;-inkscape-stroke:none"
     id="rect4"
     width="120"
     height="120"
     x="0"
     y="0"
     ry="0" />
  <path
     d="m 58.836487,74.077803 v 21.657276 c 0,0 14.101305,-2.3823 18.615584,-8.66291 5.026208,-7.016958 0,-21.657277 0,-21.657277"
     id="path1"
     style="stroke-width:8.97956" />
  <path
     d="m 23.932266,80.574986 c -6.980844,5.457633 -9.307792,21.657274 -9.307792,21.657274 0,0 17.405571,-2.16573 23.26948,-8.662908 3.304267,-3.638423 3.257728,-9.226 -0.41885,-12.604535 A 10.145493,9.4425726 0 0 0 23.932266,80.574986"
     id="path2"
     style="stroke-width:8.97956" />
  <path
     d="M 44.874799,61.083437 A 102.38571,95.292017 0 0 1 54.182591,43.974188 59.942182,55.789144 0 0 1 105.37545,17.768884 c 0,11.781558 -3.63004,32.485915 -27.923379,47.646008 a 104.24727,97.024599 0 0 1 -18.615584,8.662911 z"
     id="path3"
     style="stroke-width:8.97956" />
  <path
     d="M 44.874799,61.083437 H 21.605318 c 0,0 2.559643,-13.12431 9.307792,-17.325821 7.539312,-4.677972 23.269481,0.216572 23.269481,0.216572"
     id="path4"
     style="stroke-width:8.97956" />
</svg>
